<?xml version="1.0" encoding="UTF-8"?>
<svg id="icon_onecolor" data-name="icon onecolor" xmlns="http://www.w3.org/2000/svg" width="192.0842285" height="164.719424" version="1.1" viewBox="0 0 192.0842285 164.719424">
  <defs>
    <style>
      .cls-1, .cls-2 {
        fill: #fff;
      }

      .cls-1, .cls-3 {
        stroke: #fff;
        stroke-miterlimit: 10;
        stroke-width: 3px;
      }

      .cls-2 {
        stroke-width: 0px;
      }

      .cls-3 {
        fill: #000;
      }
    </style>
  </defs>
  <rect class="cls-1" x="80.2303813" y="34.8187341" width="47.4351985" height="47.4351985"/>
  <rect class="cls-3" x="64.4186487" y="19.0070015" width="47.4351985" height="47.4351985"/>
  <g>
    <path class="cls-2" d="M25.2384033,116.4832471l-3.5546875,28.925293h-4.3164062l3.5546875-28.925293h4.3164062ZM26.5274658,107.7527784c0,.6123047-.2285156,1.1459961-.6835938,1.6015625-.4560547.4560547-1.0097656.6835938-1.6601562.6835938-.6386719,0-1.1914062-.234375-1.6601562-.703125-.46875-.4814453-.703125-1.0478516-.703125-1.6992188,0-.625.2275391-1.1650391.6835938-1.6210938.4550781-.4555664.9960938-.6835938,1.6210938-.6835938.6503906,0,1.2109375.2412109,1.6796875.7226562.4814453.46875.7226562,1.0351562.7226562,1.6992188Z"/>
    <path class="cls-2" d="M41.8409424,118.5144971l-2.4414062,2.4414062c-1.1455078-1.0283203-2.2070312-1.5429688-3.1835938-1.5429688-.6640625,0-1.2138672.1855469-1.6503906.5566406s-.6542969.8300781-.6542969,1.3769531c0,.5341797.1826172.9833984.546875,1.3476562.3642578.3779297,1.1259766.8857422,2.2851562,1.5234375,1.6533203.9248047,2.7607422,1.7709961,3.3203125,2.5390625.5986328.7553711.8984375,1.7382812.8984375,2.9492188,0,1.7451172-.6054688,3.144043-1.8164062,4.1987305-1.2373047,1.0419922-2.8447266,1.5625-4.8242188,1.5625-2.6953125,0-4.9287109-1.2167969-6.6992188-3.6518555l2.8320312-1.9726562c1.1591797,1.3935547,2.3955078,2.0898438,3.7109375,2.0898438.7421875,0,1.3378906-.1953125,1.7871094-.5859375s.6738281-.8984375.6738281-1.5234375c0-.546875-.1884766-.9892578-.5664062-1.328125-.1826172-.1689453-.5009766-.4033203-.9570312-.703125-.4560547-.2993164-1.0742188-.6572266-1.8554688-1.0742188-1.3798828-.7680664-2.3369141-1.5166016-2.8710938-2.2460938-.5341797-.7680664-.8007812-1.7055664-.8007812-2.8125,0-1.6665039.6123047-3.046875,1.8359375-4.140625s2.7802734-1.640625,4.6679688-1.640625c2.0830078,0,4.0039062.8789062,5.7617188,2.6367188Z"/>
    <path class="cls-2" d="M66.8692627,101.8934034l-4.0625,32.987793h-4.296875l.234375-1.9726562c-1.0683594.9511719-1.9921875,1.5957031-2.7734375,1.9335938-.7685547.3125-1.71875.46875-2.8515625.46875-2.578125,0-4.6875-.8515625-6.328125-2.5585938-1.640625-1.7182617-2.4609375-3.9316406-2.4609375-6.6401367,0-2.890625.8984375-5.2929688,2.6953125-7.2070312s4.0556641-2.8710938,6.7773438-2.8710938c1.3925781,0,2.5644531.2412109,3.515625.7226562.9892578.4951172,2.0244141,1.3349609,3.1054688,2.5195312l2.1289062-17.3828125h4.3164062ZM59.7598877,124.8816846c0-1.5625-.4824219-2.8251953-1.4453125-3.7890625-.9638672-.9633789-2.2265625-1.4453125-3.7890625-1.4453125-1.6933594,0-3.0927734.6318359-4.1992188,1.8945312-1.1074219,1.2631836-1.6601562,2.8583984-1.6601562,4.7851562,0,1.6279297.4746094,2.9365234,1.4257812,3.9257812.9501953.9765625,2.2128906,1.4648438,3.7890625,1.4648438,1.640625,0,3.0273438-.6640625,4.1601562-1.9921875,1.1455078-1.3017578,1.71875-2.9165039,1.71875-4.84375Z"/>
    <path class="cls-2" d="M72.9356689,127.2254346c0,1.3544922.46875,2.4677734,1.40625,3.3398438.9501953.8725586,2.1611328,1.3085938,3.6328125,1.3085938,2.0185547,0,3.5673828-.7548828,4.6484375-2.265625l3.2226562,1.7773438c-1.1201172,1.5112305-2.2724609,2.565918-3.4570312,3.1635742-1.1982422.6123047-2.6953125.9179688-4.4921875.9179688-2.8515625,0-5.1240234-.8398438-6.8164062-2.5195312-1.6923828-1.6791992-2.5390625-3.925293-2.5390625-6.737793,0-2.9423828.9306641-5.4033203,2.7929688-7.3828125,1.8486328-1.9658203,4.1865234-2.9492188,7.0117188-2.9492188,2.734375,0,4.8896484.8857422,6.4648438,2.65625,1.6015625,1.7841797,2.4023438,4.1733398,2.4023438,7.1679688,0,.3125-.0195312.8203125-.0585938,1.5234375h-14.21875ZM82.8380127,123.7488721c-.4560547-2.8383789-2.0244141-4.2578125-4.7070312-4.2578125-2.5390625,0-4.1923828,1.4194336-4.9609375,4.2578125h9.6679688Z"/>
    <path class="cls-2" d="M103.6300049,118.5144971l-2.4414062,2.4414062c-1.1464844-1.0283203-2.2070312-1.5429688-3.1835938-1.5429688-.6640625,0-1.2148438.1855469-1.6503906.5566406-.4365234.3710938-.6542969.8300781-.6542969,1.3769531,0,.5341797.1816406.9833984.546875,1.3476562.3642578.3779297,1.1259766.8857422,2.2851562,1.5234375,1.6533203.9248047,2.7597656,1.7709961,3.3203125,2.5390625.5986328.7553711.8984375,1.7382812.8984375,2.9492188,0,1.7451172-.6054688,3.144043-1.8164062,4.1987305-1.2373047,1.0419922-2.8457031,1.5625-4.8242188,1.5625-2.6953125,0-4.9287109-1.2167969-6.6992188-3.6518555l2.8320312-1.9726562c1.1582031,1.3935547,2.3955078,2.0898438,3.7109375,2.0898438.7421875,0,1.3378906-.1953125,1.7871094-.5859375s.6738281-.8984375.6738281-1.5234375c0-.546875-.1894531-.9892578-.5664062-1.328125-.1826172-.1689453-.5019531-.4033203-.9570312-.703125-.4560547-.2993164-1.0742188-.6572266-1.8554688-1.0742188-1.3808594-.7680664-2.3378906-1.5166016-2.8710938-2.2460938-.5341797-.7680664-.8007812-1.7055664-.8007812-2.8125,0-1.6665039.6113281-3.046875,1.8359375-4.140625,1.2236328-1.09375,2.7792969-1.640625,4.6679688-1.640625,2.0830078,0,4.0039062.8789062,5.7617188,2.6367188Z"/>
    <path class="cls-2" d="M112.7774658,116.4832471l-2.265625,18.3979492h-4.3164062l2.265625-18.3979492h4.3164062ZM114.1251221,107.7332471c0,.625-.2275391,1.1655273-.6835938,1.6210938-.4560547.4560547-1.0029297.6835938-1.640625.6835938s-1.1914062-.234375-1.6601562-.703125c-.4560547-.4946289-.6835938-1.0610352-.6835938-1.6992188,0-.6376953.2216797-1.1782227.6640625-1.6210938.4560547-.4555664.9960938-.6835938,1.6210938-.6835938.6376953,0,1.1914062.2412109,1.6601562.7226562.4814453.46875.7226562,1.0288086.7226562,1.6796875Z"/>
    <path class="cls-2" d="M136.7735596,116.4832471l-2.265625,18.534668c-.1435547,1.1074219-.3027344,2.0703125-.4785156,2.890625s-.3740234,1.5107422-.5957031,2.0703125c-.4560547,1.1464844-1.1328125,2.1289062-2.03125,2.9492188-1.7451172,1.5625-4.0107422,2.34375-6.796875,2.34375-2.8779297,0-5.2080078-.7548828-6.9921875-2.265625-.9111328-.7548828-1.5498047-1.6142578-1.9140625-2.578125-.3642578-.8847656-.546875-2.1289062-.546875-3.7304688h4.1796875c.1044922,1.7324219.546875,2.9921875,1.328125,3.7792969.78125.7880859,1.9921875,1.1816406,3.6328125,1.1816406,1.7705078,0,3.1181641-.4716797,4.0429688-1.4160156.9248047-.9433594,1.5107422-2.4443359,1.7578125-4.5019531l.3125-2.5195312c-1.8232422,1.3945312-3.7373047,2.0898438-5.7421875,2.0898438-2.5,0-4.5634766-.8515625-6.1914062-2.5585938-1.6279297-1.7441406-2.4414062-3.918457-2.4414062-6.5229492,0-2.9296875.9443359-5.3579102,2.8320312-7.2851562,1.9013672-1.9399414,4.2773438-2.9101562,7.1289062-2.9101562,1.3671875,0,2.4736328.2021484,3.3203125.6054688.9248047.390625,1.8818359,1.1005859,2.8710938,2.1289062l.2734375-2.2851562h4.3164062ZM131.8126221,125.2137159c0-1.6665039-.5078125-3.0078125-1.5234375-4.0234375-1.015625-1.0283203-2.34375-1.5429688-3.984375-1.5429688-1.7060547,0-3.125.625-4.2578125,1.875-1.1201172,1.2373047-1.6796875,2.7929688-1.6796875,4.6679688,0,1.640625.4814453,2.9819336,1.4453125,4.0234375.9765625,1.0029297,2.265625,1.5039062,3.8671875,1.5039062,1.7841797,0,3.2490234-.6118164,4.3945312-1.8359375,1.1591797-1.2368164,1.7382812-2.7929688,1.7382812-4.6679688Z"/>
    <path class="cls-2" d="M146.7530518,116.4832471l-.1953125,1.6992188c1.7060547-1.4321289,3.4306641-2.1484375,5.1757812-2.1484375,1.796875,0,3.2353516.5014648,4.3164062,1.5039062,1.0546875,1.0029297,1.5820312,2.3701172,1.5820312,4.1015625,0,.9375-.078125,2.0576172-.234375,3.359375l-1.2304688,9.8823242h-4.296875l1.328125-10.8198242c.0517578-.4033203.0878906-.7617188.1074219-1.0742188s.0292969-.5922852.0292969-.8398438c0-1.6665039-.8984375-2.5-2.6953125-2.5-1.1064453,0-2.0576172.3388672-2.8515625,1.015625-.6513672.5341797-1.1328125,1.1850586-1.4453125,1.953125-.1689453.390625-.3125.8691406-.4296875,1.4355469s-.2216797,1.2207031-.3125,1.9628906l-1.09375,8.8666992h-4.3164062l2.265625-18.3979492h4.296875Z"/>
    <path class="cls-2" d="M174.7169189,118.5144971l-2.4414062,2.4414062c-1.1455078-1.0283203-2.2070312-1.5429688-3.1835938-1.5429688-.6640625,0-1.2138672.1855469-1.6503906.5566406s-.6542969.8300781-.6542969,1.3769531c0,.5341797.1826172.9833984.546875,1.3476562.3642578.3779297,1.1259766.8857422,2.2851562,1.5234375,1.6533203.9248047,2.7607422,1.7709961,3.3203125,2.5390625.5986328.7553711.8984375,1.7382812.8984375,2.9492188,0,1.7451172-.6054688,3.144043-1.8164062,4.1987305-1.2373047,1.0419922-2.8447266,1.5625-4.8242188,1.5625-2.6953125,0-4.9287109-1.2167969-6.6992188-3.6518555l2.8320312-1.9726562c1.1591797,1.3935547,2.3955078,2.0898438,3.7109375,2.0898438.7421875,0,1.3378906-.1953125,1.7871094-.5859375s.6738281-.8984375.6738281-1.5234375c0-.546875-.1884766-.9892578-.5664062-1.328125-.1826172-.1689453-.5009766-.4033203-.9570312-.703125-.4560547-.2993164-1.0742188-.6572266-1.8554688-1.0742188-1.3798828-.7680664-2.3369141-1.5166016-2.8710938-2.2460938-.5341797-.7680664-.8007812-1.7055664-.8007812-2.8125,0-1.6665039.6123047-3.046875,1.8359375-4.140625s2.7802734-1.640625,4.6679688-1.640625c2.0830078,0,4.0039062.8789062,5.7617188,2.6367188Z"/>
  </g>
</svg>